<?xml version="1.0" standalone="no"?><!DOCTYPE svg PUBLIC "-//W3C//DTD SVG 1.1//EN" "http://www.w3.org/Graphics/SVG/1.1/DTD/svg11.dtd"><svg t="1648391201677" class="icon" viewBox="0 0 1024 1024" version="1.1" xmlns="http://www.w3.org/2000/svg" p-id="12652" xmlns:xlink="http://www.w3.org/1999/xlink" width="200" height="200"><defs><style type="text/css">@font-face { font-family: feedback-iconfont; src: url("//at.alicdn.com/t/font_1031158_u69w8yhxdu.woff2?t=1630033759944") format("woff2"), url("//at.alicdn.com/t/font_1031158_u69w8yhxdu.woff?t=1630033759944") format("woff"), url("//at.alicdn.com/t/font_1031158_u69w8yhxdu.ttf?t=1630033759944") format("truetype"); }
</style></defs><path d="M717.676983 458.24a49.225143 49.225143 0 0 0-35.474286 16.384L270.920411 928.329143a59.245714 59.245714 0 0 0-14.921142 39.424 59.465143 59.465143 0 0 0 14.336 39.643428c19.529143 21.942857 51.126857 22.162286 70.948571 0.585143L752.639269 554.203429a59.245714 59.245714 0 0 0 14.921142-39.350858 59.465143 59.465143 0 0 0-14.336-39.643428 43.666286 43.666286 0 0 0-35.547428-16.896v-0.073143zM310.856411 0a48.859429 48.859429 0 0 0-35.474285 16.384 59.245714 59.245714 0 0 0-14.848 39.350857 59.465143 59.465143 0 0 0 14.262857 39.643429l407.332571 458.24c19.529143 21.869714 51.053714 22.162286 70.948572 0.585143A59.245714 59.245714 0 0 0 767.999269 514.925714a59.465143 59.465143 0 0 0-14.336-39.643428L346.330697 16.969143A46.592 46.592 0 0 0 310.929554 0z" fill="#FFFFFF" p-id="12653"></path></svg>