<?xml version="1.0" standalone="no"?><!DOCTYPE svg PUBLIC "-//W3C//DTD SVG 1.1//EN" "http://www.w3.org/Graphics/SVG/1.1/DTD/svg11.dtd"><svg t="1648391191882" class="icon" viewBox="0 0 1024 1024" version="1.1" xmlns="http://www.w3.org/2000/svg" p-id="12521" xmlns:xlink="http://www.w3.org/1999/xlink" width="200" height="200"><defs><style type="text/css">@font-face { font-family: feedback-iconfont; src: url("//at.alicdn.com/t/font_1031158_u69w8yhxdu.woff2?t=1630033759944") format("woff2"), url("//at.alicdn.com/t/font_1031158_u69w8yhxdu.woff?t=1630033759944") format("woff"), url("//at.alicdn.com/t/font_1031158_u69w8yhxdu.ttf?t=1630033759944") format("truetype"); }
</style></defs><path d="M306.323749 458.24c12.653714 0 25.380571 5.705143 35.474285 16.384l411.282286 453.705143a59.245714 59.245714 0 0 1 14.921143 39.424 59.465143 59.465143 0 0 1-14.336 39.643428 46.738286 46.738286 0 0 1-70.948572 0.585143L271.361463 554.203429a59.245714 59.245714 0 0 1-14.921143-39.350858 59.465143 59.465143 0 0 1 14.336-39.643428 43.666286 43.666286 0 0 1 35.547429-16.896v-0.073143zM713.14432 0c12.726857 0 25.307429 5.632 35.474286 16.384a59.245714 59.245714 0 0 1 14.848 39.350857 59.465143 59.465143 0 0 1-14.262857 39.643429L341.798034 553.618286a46.738286 46.738286 0 0 1-70.948571 0.585143A59.245714 59.245714 0 0 1 256.001463 514.925714a59.465143 59.465143 0 0 1 14.336-39.643428L677.670034 16.969143A46.592 46.592 0 0 1 713.071177 0z" fill="#FFFFFF" p-id="12522"></path></svg>